<?xml version="1.0" encoding="utf-8"?>
<svg xmlns="http://www.w3.org/2000/svg" width="250" zoomAndPan="magnify" viewBox="0 0 375 374.999991" height="250" preserveAspectRatio="xMidYMid meet" version="1.0">
  <defs>
    <g/>
    <clipPath id="c455d5cbab">
      <path d="M 79.175781 188.101562 L 175.175781 188.101562 L 175.175781 254 L 79.175781 254 Z M 79.175781 188.101562 " clip-rule="nonzero"/>
    </clipPath>
    <clipPath id="df1275b294">
      <path d="M 104 233 L 150 233 L 150 258.601562 L 104 258.601562 Z M 104 233 " clip-rule="nonzero"/>
    </clipPath>
  </defs>
  <rect x="0.441" width="374.79" fill="#ffffff" y="-2.046" height="376.279" fill-opacity="1" style="" id="object-0" rx="63.949" ry="63.949"/>
  <g style="" transform="matrix(2.222905, 0, 0, 2.222905, -53.839905, -350.960571)">
    <g clip-path="url(#c455d5cbab)" transform="matrix(1.591482, 0, 0, 1.591482, -93.828369, -113.211617)">
      <path fill="#000000" d="M 127.175781 188.242188 L 79.175781 213.3125 L 127.175781 238.382812 L 154.960938 224.4375 C 154.960938 224.4375 154.960938 237.078125 154.960938 243.398438 C 154.960938 253.425781 165.070312 253.425781 165.070312 253.425781 L 165.070312 248.410156 C 165.070312 248.410156 160.015625 248.125 160.015625 243.394531 C 160.015625 235.875 160.015625 221.617188 160.015625 221.617188 L 175.175781 213.3125 Z M 127.175781 188.242188 " fill-opacity="1" fill-rule="nonzero"/>
    </g>
    <g clip-path="url(#df1275b294)" transform="matrix(1.591482, 0, 0, 1.591482, -93.828369, -113.211617)">
      <path fill="#000000" d="M 104.4375 233.371094 L 104.4375 243.398438 C 104.4375 245.890625 106.078125 249.226562 109.488281 250.917969 L 127.175781 258.441406 L 142.332031 250.917969 C 145.742188 249.226562 150.148438 245.875 149.910156 243.398438 L 149.910156 233.371094 L 127.175781 244.335938 Z M 104.4375 233.371094 " fill-opacity="1" fill-rule="nonzero"/>
    </g>
  </g>
</svg>