<?xml version="1.0" encoding="utf-8"?>
<svg xmlns="http://www.w3.org/2000/svg" width="500" zoomAndPan="magnify" viewBox="0 128.617 363.994 107.736" height="500" preserveAspectRatio="xMidYMid meet" version="1.0">
  <defs>
    <g/>
    <clipPath id="b5242543f0">
      <path d="M 14.730469 150.660156 L 109.230469 150.660156 L 109.230469 216 L 14.730469 216 Z M 14.730469 150.660156 " clip-rule="nonzero"/>
    </clipPath>
    <clipPath id="71b1af991c">
      <path d="M 39 195 L 85 195 L 85 220.410156 L 39 220.410156 Z M 39 195 " clip-rule="nonzero"/>
    </clipPath>
    <clipPath id="47e90dcbd6">
      <rect x="0" width="245" y="0" height="145"/>
    </clipPath>
  </defs>
  <g clip-path="url(#b5242543f0)">
    <path fill="#000000" d="M 61.980469 150.800781 L 14.730469 175.605469 L 61.980469 200.410156 L 89.335938 186.613281 C 89.335938 186.613281 89.335938 199.117188 89.335938 205.371094 C 89.335938 215.292969 99.285156 215.292969 99.285156 215.292969 L 99.285156 210.332031 C 99.285156 210.332031 94.308594 210.046875 94.308594 205.367188 C 94.308594 197.925781 94.308594 183.820312 94.308594 183.820312 L 109.230469 175.605469 Z M 61.980469 150.800781 " fill-opacity="1" fill-rule="nonzero"/>
  </g>
  <g clip-path="url(#71b1af991c)">
    <path fill="#000000" d="M 39.597656 195.449219 L 39.597656 205.371094 C 39.597656 207.835938 41.214844 211.136719 44.574219 212.8125 L 61.980469 220.253906 L 76.902344 212.8125 C 80.261719 211.136719 84.597656 207.824219 84.363281 205.371094 L 84.363281 195.449219 L 61.980469 206.300781 Z M 39.597656 195.449219 " fill-opacity="1" fill-rule="nonzero"/>
  </g>
  <g transform="matrix(1, 0, 0, 1, 109, 115)">
    <g clip-path="url(#47e90dcbd6)">
      <g fill="#000000" fill-opacity="1">
        <g transform="translate(0.936499, 105.578499)">
          <g>
            <path d="M 8.421875 0 L 8.421875 -70.15625 L 21.953125 -70.15625 L 46.90625 -33.78125 L 71.765625 -70.15625 L 85.203125 -70.15625 L 85.203125 0 L 69.359375 0 L 69.359375 -42.203125 L 52.328125 -17.34375 L 41.296875 -17.34375 L 24.25 -42.296875 L 24.25 0 Z M 8.421875 0 "/>
          </g>
        </g>
      </g>
      <g fill="#000000" fill-opacity="1">
        <g transform="translate(91.336565, 105.578499)">
          <g>
            <path d="M 32.46875 1.40625 C 26.863281 1.40625 21.90625 0.238281 17.59375 -2.09375 C 13.28125 -4.4375 9.921875 -7.695312 7.515625 -11.875 C 5.109375 -16.050781 3.90625 -20.878906 3.90625 -26.359375 C 3.90625 -31.835938 5.125 -36.648438 7.5625 -40.796875 C 10 -44.941406 13.375 -48.179688 17.6875 -50.515625 C 22 -52.859375 26.992188 -54.03125 32.671875 -54.03125 C 38.691406 -54.03125 43.890625 -52.691406 48.265625 -50.015625 C 52.640625 -47.335938 55.976562 -43.59375 58.28125 -38.78125 C 60.59375 -33.976562 61.582031 -28.367188 61.25 -21.953125 L 19.046875 -21.953125 C 19.773438 -18.335938 21.375 -15.578125 23.84375 -13.671875 C 26.320312 -11.773438 29.300781 -10.828125 32.78125 -10.828125 C 35.3125 -10.828125 37.628906 -11.3125 39.734375 -12.28125 C 41.847656 -13.25 43.539062 -14.601562 44.8125 -16.34375 L 60.234375 -16.34375 C 57.960938 -10.789062 54.390625 -6.441406 49.515625 -3.296875 C 44.640625 -0.160156 38.957031 1.40625 32.46875 1.40625 Z M 19.140625 -31.578125 L 46.515625 -31.578125 C 45.640625 -34.785156 44.015625 -37.304688 41.640625 -39.140625 C 39.273438 -40.972656 36.320312 -41.890625 32.78125 -41.890625 C 29.4375 -41.890625 26.546875 -40.972656 24.109375 -39.140625 C 21.671875 -37.304688 20.015625 -34.785156 19.140625 -31.578125 Z M 19.140625 -31.578125 "/>
          </g>
        </g>
      </g>
      <g fill="#000000" fill-opacity="1">
        <g transform="translate(153.17327, 105.578499)">
          <g>
            <path d="M 8.421875 0 L 8.421875 -70.15625 L 24.359375 -70.15625 L 24.359375 0 Z M 8.421875 0 "/>
          </g>
        </g>
      </g>
      <g fill="#000000" fill-opacity="1">
        <g transform="translate(182.738375, 105.578499)">
          <g>
            <path d="M 32.875 1.40625 C 27 1.40625 21.9375 0.4375 17.6875 -1.5 C 13.445312 -3.4375 10.171875 -6.191406 7.859375 -9.765625 C 5.554688 -13.347656 4.40625 -17.546875 4.40625 -22.359375 L 20.046875 -22.359375 C 20.046875 -19.015625 21.195312 -16.40625 23.5 -14.53125 C 25.8125 -12.664062 28.90625 -11.734375 32.78125 -11.734375 C 36.113281 -11.734375 38.75 -12.382812 40.6875 -13.6875 C 42.632812 -14.988281 43.609375 -16.804688 43.609375 -19.140625 C 43.609375 -21.617188 42.4375 -23.625 40.09375 -25.15625 C 37.75 -26.695312 34.109375 -28 29.171875 -29.0625 C 20.953125 -30.800781 14.867188 -33.441406 10.921875 -36.984375 C 6.984375 -40.523438 5.015625 -45.132812 5.015625 -50.8125 C 5.015625 -57.226562 7.351562 -62.289062 12.03125 -66 C 16.707031 -69.707031 23.085938 -71.5625 31.171875 -71.5625 C 36.722656 -71.5625 41.535156 -70.609375 45.609375 -68.703125 C 49.679688 -66.804688 52.835938 -64.132812 55.078125 -60.6875 C 57.316406 -57.25 58.4375 -53.15625 58.4375 -48.40625 L 43.09375 -48.40625 C 43.09375 -51.550781 42.054688 -54.023438 39.984375 -55.828125 C 37.921875 -57.628906 35.050781 -58.53125 31.375 -58.53125 C 28.03125 -58.53125 25.390625 -57.878906 23.453125 -56.578125 C 21.515625 -55.273438 20.546875 -53.457031 20.546875 -51.125 C 20.546875 -48.976562 21.613281 -47.171875 23.75 -45.703125 C 25.894531 -44.234375 29.640625 -42.863281 34.984375 -41.59375 C 43.734375 -39.519531 50.046875 -36.742188 53.921875 -33.265625 C 57.796875 -29.796875 59.734375 -25.289062 59.734375 -19.75 C 59.734375 -13.132812 57.34375 -7.953125 52.5625 -4.203125 C 47.789062 -0.460938 41.226562 1.40625 32.875 1.40625 Z M 32.875 1.40625 "/>
          </g>
        </g>
      </g>
    </g>
  </g>
</svg>